<svg xmlns="http://www.w3.org/2000/svg" viewBox="0 0 1280 720" width="1280" height="720">
  <g id="bg">
    <rect width="1280" height="720" fill="#FFFFFF" />
  </g>

  <g id="header">
    <path fill="#4F46E5" d="M67,60 H67 A3,3 0 0 1 70,63 V97 A3,3 0 0 1 67,100 H67 A3,3 0 0 1 64,97 V63 A3,3 0 0 1 67,60 Z" />
    <text x="84" y="92" font-family="'Microsoft YaHei', 'PingFang SC', sans-serif" font-size="36" font-weight="700" fill="#1E293B">解决的问题</text>
    <text x="1216" y="92" text-anchor="end" font-family="'Microsoft YaHei', 'PingFang SC', sans-serif" font-size="14" font-weight="500" fill="#94A3B8" letter-spacing="1">THE PROBLEM</text>
  </g>

  <g id="subtitle">
    <text x="84" y="128" font-family="'Microsoft YaHei', 'PingFang SC', sans-serif" font-size="16" font-weight="500" fill="#64748B">传统短剧生产流程的五大痛点</text>
  </g>

  <g id="pain-1">
    <path fill="#F8FAFC" stroke="#E2E8F0" stroke-width="1" d="M76,156 H1204 A12,12 0 0 1 1216,168 V212 A12,12 0 0 1 1204,224 H76 A12,12 0 0 1 64,212 V168 A12,12 0 0 1 76,156 Z" />
    <path fill="#EEF2FF" d="M102,174 H118 A10,10 0 0 1 128,184 V200 A10,10 0 0 1 118,210 H102 A10,10 0 0 1 92,200 V184 A10,10 0 0 1 102,174 Z" />
    
  <g transform="translate(98.0, 180.0)" fill="none" stroke="#4F46E5" stroke-width="2">
    <path d="M3 12l3 3l3 -3l-3 -3l-3 3" />
    <path d="M15 12l3 3l3 -3l-3 -3l-3 3" />
    <path d="M9 6l3 3l3 -3l-3 -3l-3 3" />
    <path d="M9 18l3 3l3 -3l-3 -3l-3 3" />
  </g>
    <text x="148" y="187" font-family="'Microsoft YaHei', 'PingFang SC', sans-serif" font-size="19" font-weight="700" fill="#1E293B">工具链割裂</text>
    <text x="148" y="209" font-family="'Microsoft YaHei', 'PingFang SC', sans-serif" font-size="13" font-weight="500" fill="#64748B">剧本、分镜、绘图、视频、配音、剪辑散落多个工具，素材靠手动搬运</text>
    <text x="1184" y="203" text-anchor="end" font-family="'Microsoft YaHei', 'PingFang SC', sans-serif" font-size="40" font-weight="800" fill="#4F46E5" fill-opacity="0.07">01</text>
  </g>

  <g id="pain-2">
    <path fill="#F8FAFC" stroke="#E2E8F0" stroke-width="1" d="M76,234 H1204 A12,12 0 0 1 1216,246 V290 A12,12 0 0 1 1204,302 H76 A12,12 0 0 1 64,290 V246 A12,12 0 0 1 76,234 Z" />
    <path fill="#ECFEFF" d="M102,252 H118 A10,10 0 0 1 128,262 V278 A10,10 0 0 1 118,288 H102 A10,10 0 0 1 92,278 V262 A10,10 0 0 1 102,252 Z" />
    
  <g transform="translate(98.0, 258.0)" fill="none" stroke="#06B6D4" stroke-width="2">
    <path d="M6 6a2 2 0 0 1 2 -2h8a2 2 0 0 1 2 2v4a2 2 0 0 1 -2 2h-8a2 2 0 0 1 -2 -2l0 -4" />
    <path d="M12 2v2" />
    <path d="M9 12v9" />
    <path d="M15 12v9" />
    <path d="M5 16l4 -2" />
    <path d="M15 14l4 2" />
    <path d="M9 18h6" />
    <path d="M10 8v.01" />
    <path d="M14 8v.01" />
  </g>
    <text x="148" y="265" font-family="'Microsoft YaHei', 'PingFang SC', sans-serif" font-size="19" font-weight="700" fill="#1E293B">AI 能力难成闭环</text>
    <text x="148" y="287" font-family="'Microsoft YaHei', 'PingFang SC', sans-serif" font-size="13" font-weight="500" fill="#64748B">文本 / 图 / 视频 / TTS 各自为政，产出物无法被下游复用</text>
    <text x="1184" y="281" text-anchor="end" font-family="'Microsoft YaHei', 'PingFang SC', sans-serif" font-size="40" font-weight="800" fill="#06B6D4" fill-opacity="0.07">02</text>
  </g>

  <g id="pain-3">
    <path fill="#F8FAFC" stroke="#E2E8F0" stroke-width="1" d="M76,312 H1204 A12,12 0 0 1 1216,324 V368 A12,12 0 0 1 1204,380 H76 A12,12 0 0 1 64,368 V324 A12,12 0 0 1 76,312 Z" />
    <path fill="#EEF2FF" d="M102,330 H118 A10,10 0 0 1 128,340 V356 A10,10 0 0 1 118,366 H102 A10,10 0 0 1 92,356 V340 A10,10 0 0 1 102,330 Z" />
    
  <g transform="translate(98.0, 336.0)" fill="none" stroke="#4F46E5" stroke-width="2">
    <path d="M5 7a4 4 0 1 0 8 0a4 4 0 1 0 -8 0" />
    <path d="M3 21v-2a4 4 0 0 1 4 -4h4a4 4 0 0 1 4 4v2" />
    <path d="M16 3.13a4 4 0 0 1 0 7.75" />
    <path d="M21 21v-2a4 4 0 0 0 -3 -3.85" />
  </g>
    <text x="148" y="343" font-family="'Microsoft YaHei', 'PingFang SC', sans-serif" font-size="19" font-weight="700" fill="#1E293B">协作与审阅缺位</text>
    <text x="148" y="365" font-family="'Microsoft YaHei', 'PingFang SC', sans-serif" font-size="13" font-weight="500" fill="#64748B">版本、评论、审计、权限依赖文件名与聊天记录</text>
    <text x="1184" y="359" text-anchor="end" font-family="'Microsoft YaHei', 'PingFang SC', sans-serif" font-size="40" font-weight="800" fill="#4F46E5" fill-opacity="0.07">03</text>
  </g>

  <g id="pain-4">
    <path fill="#F8FAFC" stroke="#E2E8F0" stroke-width="1" d="M76,390 H1204 A12,12 0 0 1 1216,402 V446 A12,12 0 0 1 1204,458 H76 A12,12 0 0 1 64,446 V402 A12,12 0 0 1 76,390 Z" />
    <path fill="#ECFEFF" d="M102,408 H118 A10,10 0 0 1 128,418 V434 A10,10 0 0 1 118,444 H102 A10,10 0 0 1 92,434 V418 A10,10 0 0 1 102,408 Z" />
    
  <g transform="translate(98.0, 414.0)" fill="none" stroke="#06B6D4" stroke-width="2">
    <path d="M4 16l6 -7l5 5l5 -6" />
    <path d="M14 14a1 1 0 1 0 2 0a1 1 0 1 0 -2 0" />
    <path d="M9 9a1 1 0 1 0 2 0a1 1 0 1 0 -2 0" />
    <path d="M3 16a1 1 0 1 0 2 0a1 1 0 1 0 -2 0" />
    <path d="M19 8a1 1 0 1 0 2 0a1 1 0 1 0 -2 0" />
  </g>
    <text x="148" y="421" font-family="'Microsoft YaHei', 'PingFang SC', sans-serif" font-size="19" font-weight="700" fill="#1E293B">成片组装最后一公里</text>
    <text x="148" y="443" font-family="'Microsoft YaHei', 'PingFang SC', sans-serif" font-size="13" font-weight="500" fill="#64748B">产出物仍需手工拼时间线、对齐字幕与音轨再导出</text>
    <text x="1184" y="437" text-anchor="end" font-family="'Microsoft YaHei', 'PingFang SC', sans-serif" font-size="40" font-weight="800" fill="#06B6D4" fill-opacity="0.07">04</text>
  </g>

  <g id="pain-5">
    <path fill="#F8FAFC" stroke="#E2E8F0" stroke-width="1" d="M76,468 H1204 A12,12 0 0 1 1216,480 V524 A12,12 0 0 1 1204,536 H76 A12,12 0 0 1 64,524 V480 A12,12 0 0 1 76,468 Z" />
    <path fill="#EEF2FF" d="M102,486 H118 A10,10 0 0 1 128,496 V512 A10,10 0 0 1 118,522 H102 A10,10 0 0 1 92,512 V496 A10,10 0 0 1 102,486 Z" />
    
  <g transform="translate(98.0, 492.0)" fill="none" stroke="#4F46E5" stroke-width="2">
    <path d="M15 8h.01" />
    <path d="M3 6a3 3 0 0 1 3 -3h12a3 3 0 0 1 3 3v12a3 3 0 0 1 -3 3h-12a3 3 0 0 1 -3 -3v-12" />
    <path d="M3 16l5 -5c.928 -.893 2.072 -.893 3 0l5 5" />
    <path d="M14 14l1 -1c.928 -.893 2.072 -.893 3 0l3 3" />
  </g>
    <text x="148" y="499" font-family="'Microsoft YaHei', 'PingFang SC', sans-serif" font-size="19" font-weight="700" fill="#1E293B">角色视觉一致性难维持</text>
    <text x="148" y="521" font-family="'Microsoft YaHei', 'PingFang SC', sans-serif" font-size="13" font-weight="500" fill="#64748B">反复重生成时人物与场景外观容易漂移</text>
    <text x="1184" y="515" text-anchor="end" font-family="'Microsoft YaHei', 'PingFang SC', sans-serif" font-size="40" font-weight="800" fill="#4F46E5" fill-opacity="0.07">05</text>
  </g>

  <g id="resolution">
    <path fill="#4F46E5" d="M78,552 H1202 A14,14 0 0 1 1216,566 V614 A14,14 0 0 1 1202,628 H78 A14,14 0 0 1 64,614 V566 A14,14 0 0 1 78,552 Z" />
    
  <g transform="translate(96.0, 572.0) scale(1.5)" fill="none" stroke="#FFFFFF" stroke-width="2">
    <path d="M4 13a8 8 0 0 1 7 7a6 6 0 0 0 3 -5a9 9 0 0 0 6 -8a3 3 0 0 0 -3 -3a9 9 0 0 0 -8 6a6 6 0 0 0 -5 3" />
    <path d="M7 14a6 6 0 0 0 -3 6a6 6 0 0 0 6 -3" />
    <path d="M14 9a1 1 0 1 0 2 0a1 1 0 1 0 -2 0" />
  </g>
    <text x="148" y="598" font-family="'Microsoft YaHei', 'PingFang SC', sans-serif" font-size="22" font-weight="700" fill="#FFFFFF">DramaFlow 的回答 —— 一个平台，一条 AI 全流程闭环</text>
    <polygon points="1148,572 1168,585 1148,598" fill="#FFFFFF" />
  </g>

  <g id="footer">
    <text x="64" y="688" font-family="'Microsoft YaHei', 'PingFang SC', sans-serif" font-size="13" font-weight="500" fill="#94A3B8">DramaFlow</text>
    <text x="1216" y="688" text-anchor="end" font-family="'Microsoft YaHei', 'PingFang SC', sans-serif" font-size="13" font-weight="500" fill="#94A3B8">02 / 11</text>
  </g>
</svg>