<svg xmlns="http://www.w3.org/2000/svg" viewBox="0 0 1280 720" width="1280" height="720">
  <g id="bg">
    <rect width="1280" height="720" fill="#FFFFFF" />
  </g>

  <g id="header">
    <path fill="#4F46E5" d="M67,60 H67 A3,3 0 0 1 70,63 V97 A3,3 0 0 1 67,100 H67 A3,3 0 0 1 64,97 V63 A3,3 0 0 1 67,60 Z" />
    <text x="84" y="92" font-family="'Microsoft YaHei', 'PingFang SC', sans-serif" font-size="36" font-weight="700" fill="#1E293B">AI 生成能力</text>
    <text x="1216" y="92" text-anchor="end" font-family="'Microsoft YaHei', 'PingFang SC', sans-serif" font-size="14" font-weight="500" fill="#94A3B8" letter-spacing="1">AI PIPELINE</text>
  </g>

  <g id="subtitle">
    <text x="84" y="128" font-family="'Microsoft YaHei', 'PingFang SC', sans-serif" font-size="16" font-weight="500" fill="#64748B">端到端 AI 生产链 —— 每阶段产出可复用的中间产物</text>
  </g>

  <g id="stage-1">
    <path fill="#FFFFFF" stroke="#E2E8F0" stroke-width="1" d="M76,160 H252 A12,12 0 0 1 264,172 V568 A12,12 0 0 1 252,580 H76 A12,12 0 0 1 64,568 V172 A12,12 0 0 1 76,160 Z" />
    <path d="M 76,160 A 12,12 0 0 0 64,172 L 64,216 L 264,216 L 264,172 A 12,12 0 0 0 252,160 Z" fill="#4F46E5" />
    <path fill="#FFFFFF" d="M84,172 H102 A6,6 0 0 1 108,178 V196 A6,6 0 0 1 102,202 H84 A6,6 0 0 1 78,196 V178 A6,6 0 0 1 84,172 Z" />
    <text x="93" y="193" text-anchor="middle" font-family="'Microsoft YaHei', 'PingFang SC', sans-serif" font-size="15" font-weight="800" fill="#4F46E5">01</text>
    <text x="120" y="195" font-family="'Microsoft YaHei', 'PingFang SC', sans-serif" font-size="17" font-weight="700" fill="#FFFFFF">文本生成</text>
    
  <g transform="translate(218.0, 178.0) scale(1.1666666666666667)" fill="none" stroke="#FFFFFF" stroke-width="2">
    <path d="M20 17v-12c0 -1.121 -.879 -2 -2 -2s-2 .879 -2 2v12l2 2l2 -2" />
    <path d="M16 7h4" />
    <path d="M18 19h-13a2 2 0 1 1 0 -4h4a2 2 0 1 0 0 -4h-3" />
  </g>
    <rect x="64" y="216" width="200" height="32" fill="#EEF2FF" />
    <text x="164" y="237" text-anchor="middle" font-family="'Microsoft YaHei', 'PingFang SC', sans-serif" font-size="12" font-weight="700" fill="#4F46E5">SSE 流式 + 对话式 QA</text>
    <circle cx="82" cy="280" r="3" fill="#4F46E5" />
    <text x="94" y="284" font-family="'Microsoft YaHei', 'PingFang SC', sans-serif" font-size="13" font-weight="600" fill="#1E293B">剧本 / 梗概 / 分镜</text>
    <circle cx="82" cy="318" r="3" fill="#4F46E5" />
    <text x="94" y="322" font-family="'Microsoft YaHei', 'PingFang SC', sans-serif" font-size="13" font-weight="600" fill="#1E293B">改写与重生成</text>
    <circle cx="82" cy="356" r="3" fill="#4F46E5" />
    <text x="94" y="360" font-family="'Microsoft YaHei', 'PingFang SC', sans-serif" font-size="13" font-weight="600" fill="#1E293B">维度追踪 brief</text>
    <line x1="78" y1="392" x2="250" y2="392" stroke="#E2E8F0" stroke-width="1" stroke-dasharray="4 4" />
    <path fill="#EEF2FF" stroke="#C7D2FE" stroke-width="1" d="M86,408 H242 A8,8 0 0 1 250,416 V468 A8,8 0 0 1 242,476 H86 A8,8 0 0 1 78,468 V416 A8,8 0 0 1 86,408 Z" />
    <text x="164" y="430" text-anchor="middle" font-family="'Microsoft YaHei', 'PingFang SC', sans-serif" font-size="11" font-weight="700" fill="#64748B" letter-spacing="1">STAGE OUTPUT</text>
    <text x="164" y="460" text-anchor="middle" font-family="'Microsoft YaHei', 'PingFang SC', sans-serif" font-size="17" font-weight="800" fill="#4F46E5">剧本 · 梗概</text>
  </g>

  <g id="stage-2">
    <path fill="#FFFFFF" stroke="#E2E8F0" stroke-width="1" d="M314,160 H490 A12,12 0 0 1 502,172 V568 A12,12 0 0 1 490,580 H314 A12,12 0 0 1 302,568 V172 A12,12 0 0 1 314,160 Z" />
    <path d="M 314,160 A 12,12 0 0 0 302,172 L 302,216 L 502,216 L 502,172 A 12,12 0 0 0 490,160 Z" fill="#06B6D4" />
    <path fill="#FFFFFF" d="M322,172 H340 A6,6 0 0 1 346,178 V196 A6,6 0 0 1 340,202 H322 A6,6 0 0 1 316,196 V178 A6,6 0 0 1 322,172 Z" />
    <text x="331" y="193" text-anchor="middle" font-family="'Microsoft YaHei', 'PingFang SC', sans-serif" font-size="15" font-weight="800" fill="#06B6D4">02</text>
    <text x="358" y="195" font-family="'Microsoft YaHei', 'PingFang SC', sans-serif" font-size="17" font-weight="700" fill="#FFFFFF">图片生成</text>
    
  <g transform="translate(456.0, 178.0) scale(1.1666666666666667)" fill="none" stroke="#FFFFFF" stroke-width="2">
    <path d="M15 8h.01" />
    <path d="M3 6a3 3 0 0 1 3 -3h12a3 3 0 0 1 3 3v12a3 3 0 0 1 -3 3h-12a3 3 0 0 1 -3 -3v-12" />
    <path d="M3 16l5 -5c.928 -.893 2.072 -.893 3 0l5 5" />
    <path d="M14 14l1 -1c.928 -.893 2.072 -.893 3 0l3 3" />
  </g>
    <rect x="302" y="216" width="200" height="32" fill="#ECFEFF" />
    <text x="402" y="237" text-anchor="middle" font-family="'Microsoft YaHei', 'PingFang SC', sans-serif" font-size="12" font-weight="700" fill="#06B6D4">逐镜头 / 批量</text>
    <circle cx="320" cy="280" r="3" fill="#06B6D4" />
    <text x="332" y="284" font-family="Consolas, 'Courier New', monospace" font-size="13" font-weight="600" fill="#1E293B">Gemini</text>
    <circle cx="320" cy="318" r="3" fill="#06B6D4" />
    <text x="332" y="322" font-family="Consolas, 'Courier New', monospace" font-size="13" font-weight="600" fill="#1E293B">SD WebUI</text>
    <circle cx="320" cy="356" r="3" fill="#06B6D4" />
    <text x="332" y="360" font-family="Consolas, 'Courier New', monospace" font-size="13" font-weight="600" fill="#1E293B">ComfyUI</text>
    <line x1="316" y1="392" x2="488" y2="392" stroke="#E2E8F0" stroke-width="1" stroke-dasharray="4 4" />
    <path fill="#ECFEFF" stroke="#A5F3FC" stroke-width="1" d="M324,408 H480 A8,8 0 0 1 488,416 V468 A8,8 0 0 1 480,476 H324 A8,8 0 0 1 316,468 V416 A8,8 0 0 1 324,408 Z" />
    <text x="402" y="430" text-anchor="middle" font-family="'Microsoft YaHei', 'PingFang SC', sans-serif" font-size="11" font-weight="700" fill="#64748B" letter-spacing="1">STAGE OUTPUT</text>
    <text x="402" y="460" text-anchor="middle" font-family="'Microsoft YaHei', 'PingFang SC', sans-serif" font-size="17" font-weight="800" fill="#06B6D4">镜头图</text>
  </g>

  <g id="stage-3">
    <path fill="#FFFFFF" stroke="#E2E8F0" stroke-width="1" d="M552,160 H728 A12,12 0 0 1 740,172 V568 A12,12 0 0 1 728,580 H552 A12,12 0 0 1 540,568 V172 A12,12 0 0 1 552,160 Z" />
    <path d="M 552,160 A 12,12 0 0 0 540,172 L 540,216 L 740,216 L 740,172 A 12,12 0 0 0 728,160 Z" fill="#4F46E5" />
    <path fill="#FFFFFF" d="M560,172 H578 A6,6 0 0 1 584,178 V196 A6,6 0 0 1 578,202 H560 A6,6 0 0 1 554,196 V178 A6,6 0 0 1 560,172 Z" />
    <text x="569" y="193" text-anchor="middle" font-family="'Microsoft YaHei', 'PingFang SC', sans-serif" font-size="15" font-weight="800" fill="#4F46E5">03</text>
    <text x="596" y="195" font-family="'Microsoft YaHei', 'PingFang SC', sans-serif" font-size="17" font-weight="700" fill="#FFFFFF">视频生成</text>
    
  <g transform="translate(694.0, 178.0) scale(1.1666666666666667)" fill="none" stroke="#FFFFFF" stroke-width="2">
    <path d="M15 10l4.553 -2.276a1 1 0 0 1 1.447 .894v6.764a1 1 0 0 1 -1.447 .894l-4.553 -2.276v-4" />
    <path d="M3 8a2 2 0 0 1 2 -2h8a2 2 0 0 1 2 2v8a2 2 0 0 1 -2 2h-8a2 2 0 0 1 -2 -2l0 -8" />
  </g>
    <rect x="540" y="216" width="200" height="32" fill="#EEF2FF" />
    <text x="640" y="237" text-anchor="middle" font-family="'Microsoft YaHei', 'PingFang SC', sans-serif" font-size="12" font-weight="700" fill="#4F46E5">逐镜头 / 批量</text>
    <circle cx="558" cy="280" r="3" fill="#4F46E5" />
    <text x="570" y="284" font-family="'Microsoft YaHei', 'PingFang SC', sans-serif" font-size="13" font-weight="600" fill="#1E293B">多 provider 支持</text>
    <circle cx="558" cy="318" r="3" fill="#4F46E5" />
    <text x="570" y="322" font-family="'Microsoft YaHei', 'PingFang SC', sans-serif" font-size="13" font-weight="600" fill="#1E293B">Grok 等模型</text>
    <circle cx="558" cy="356" r="3" fill="#4F46E5" />
    <text x="570" y="360" font-family="'Microsoft YaHei', 'PingFang SC', sans-serif" font-size="13" font-weight="600" fill="#1E293B">批量状态跟踪</text>
    <line x1="554" y1="392" x2="726" y2="392" stroke="#E2E8F0" stroke-width="1" stroke-dasharray="4 4" />
    <path fill="#EEF2FF" stroke="#C7D2FE" stroke-width="1" d="M562,408 H718 A8,8 0 0 1 726,416 V468 A8,8 0 0 1 718,476 H562 A8,8 0 0 1 554,468 V416 A8,8 0 0 1 562,408 Z" />
    <text x="640" y="430" text-anchor="middle" font-family="'Microsoft YaHei', 'PingFang SC', sans-serif" font-size="11" font-weight="700" fill="#64748B" letter-spacing="1">STAGE OUTPUT</text>
    <text x="640" y="460" text-anchor="middle" font-family="'Microsoft YaHei', 'PingFang SC', sans-serif" font-size="17" font-weight="800" fill="#4F46E5">镜头视频</text>
  </g>

  <g id="stage-4">
    <path fill="#FFFFFF" stroke="#E2E8F0" stroke-width="1" d="M790,160 H966 A12,12 0 0 1 978,172 V568 A12,12 0 0 1 966,580 H790 A12,12 0 0 1 778,568 V172 A12,12 0 0 1 790,160 Z" />
    <path d="M 790,160 A 12,12 0 0 0 778,172 L 778,216 L 978,216 L 978,172 A 12,12 0 0 0 966,160 Z" fill="#06B6D4" />
    <path fill="#FFFFFF" d="M798,172 H816 A6,6 0 0 1 822,178 V196 A6,6 0 0 1 816,202 H798 A6,6 0 0 1 792,196 V178 A6,6 0 0 1 798,172 Z" />
    <text x="807" y="193" text-anchor="middle" font-family="'Microsoft YaHei', 'PingFang SC', sans-serif" font-size="15" font-weight="800" fill="#06B6D4">04</text>
    <text x="834" y="195" font-family="'Microsoft YaHei', 'PingFang SC', sans-serif" font-size="17" font-weight="700" fill="#FFFFFF">TTS 配音</text>
    
  <g transform="translate(932.0, 178.0) scale(1.1666666666666667)" fill="none" stroke="#FFFFFF" stroke-width="2">
    <path d="M9 5a3 3 0 0 1 3 -3a3 3 0 0 1 3 3v5a3 3 0 0 1 -3 3a3 3 0 0 1 -3 -3l0 -5" />
    <path d="M5 10a7 7 0 0 0 14 0" />
    <path d="M8 21l8 0" />
    <path d="M12 17l0 4" />
  </g>
    <rect x="778" y="216" width="200" height="32" fill="#ECFEFF" />
    <text x="878" y="237" text-anchor="middle" font-family="'Microsoft YaHei', 'PingFang SC', sans-serif" font-size="12" font-weight="700" fill="#06B6D4">逐镜头 / 按场景</text>
    <circle cx="796" cy="280" r="3" fill="#06B6D4" />
    <text x="808" y="284" font-family="'Microsoft YaHei', 'PingFang SC', sans-serif" font-size="13" font-weight="600" fill="#1E293B">角色语音生成</text>
    <circle cx="796" cy="318" r="3" fill="#06B6D4" />
    <text x="808" y="322" font-family="'Microsoft YaHei', 'PingFang SC', sans-serif" font-size="13" font-weight="600" fill="#1E293B">字幕同步预览</text>
    <circle cx="796" cy="356" r="3" fill="#06B6D4" />
    <text x="808" y="360" font-family="'Microsoft YaHei', 'PingFang SC', sans-serif" font-size="13" font-weight="600" fill="#1E293B">按场景批量合成</text>
    <line x1="792" y1="392" x2="964" y2="392" stroke="#E2E8F0" stroke-width="1" stroke-dasharray="4 4" />
    <path fill="#ECFEFF" stroke="#A5F3FC" stroke-width="1" d="M800,408 H956 A8,8 0 0 1 964,416 V468 A8,8 0 0 1 956,476 H800 A8,8 0 0 1 792,468 V416 A8,8 0 0 1 800,408 Z" />
    <text x="878" y="430" text-anchor="middle" font-family="'Microsoft YaHei', 'PingFang SC', sans-serif" font-size="11" font-weight="700" fill="#64748B" letter-spacing="1">STAGE OUTPUT</text>
    <text x="878" y="460" text-anchor="middle" font-family="'Microsoft YaHei', 'PingFang SC', sans-serif" font-size="17" font-weight="800" fill="#06B6D4">角色配音</text>
  </g>

  <g id="stage-5">
    <path fill="#FFFFFF" stroke="#E2E8F0" stroke-width="1" d="M1028,160 H1204 A12,12 0 0 1 1216,172 V568 A12,12 0 0 1 1204,580 H1028 A12,12 0 0 1 1016,568 V172 A12,12 0 0 1 1028,160 Z" />
    <path d="M 1028,160 A 12,12 0 0 0 1016,172 L 1016,216 L 1216,216 L 1216,172 A 12,12 0 0 0 1204,160 Z" fill="#10B981" />
    <path fill="#FFFFFF" d="M1036,172 H1054 A6,6 0 0 1 1060,178 V196 A6,6 0 0 1 1054,202 H1036 A6,6 0 0 1 1030,196 V178 A6,6 0 0 1 1036,172 Z" />
    <text x="1045" y="193" text-anchor="middle" font-family="'Microsoft YaHei', 'PingFang SC', sans-serif" font-size="15" font-weight="800" fill="#10B981">05</text>
    <text x="1072" y="195" font-family="'Microsoft YaHei', 'PingFang SC', sans-serif" font-size="17" font-weight="700" fill="#FFFFFF">合成导出</text>
    
  <g transform="translate(1170.0, 178.0) scale(1.1666666666666667)" fill="none" stroke="#FFFFFF" stroke-width="2">
    <path d="M14 3v4a1 1 0 0 0 1 1h4" />
    <path d="M11.5 21h-4.5a2 2 0 0 1 -2 -2v-14a2 2 0 0 1 2 -2h7l5 5v5m-5 6h7m-3 -3l3 3l-3 3" />
  </g>
    <rect x="1016" y="216" width="200" height="32" fill="#ECFDF5" />
    <text x="1116" y="237" text-anchor="middle" font-family="'Microsoft YaHei', 'PingFang SC', sans-serif" font-size="12" font-weight="700" fill="#10B981">时间线组装</text>
    <circle cx="1034" cy="280" r="3" fill="#10B981" />
    <text x="1046" y="284" font-family="'Microsoft YaHei', 'PingFang SC', sans-serif" font-size="13" font-weight="600" fill="#1E293B">自动组装时间线</text>
    <circle cx="1034" cy="318" r="3" fill="#10B981" />
    <text x="1046" y="322" font-family="'Microsoft YaHei', 'PingFang SC', sans-serif" font-size="13" font-weight="600" fill="#1E293B">FFmpeg 合成</text>
    <circle cx="1034" cy="356" r="3" fill="#10B981" />
    <text x="1046" y="360" font-family="'Microsoft YaHei', 'PingFang SC', sans-serif" font-size="13" font-weight="600" fill="#1E293B">mock 导出回退</text>
    <line x1="1030" y1="392" x2="1202" y2="392" stroke="#E2E8F0" stroke-width="1" stroke-dasharray="4 4" />
    <path fill="#ECFDF5" stroke="#A7F3D0" stroke-width="1" d="M1038,408 H1194 A8,8 0 0 1 1202,416 V468 A8,8 0 0 1 1194,476 H1038 A8,8 0 0 1 1030,468 V416 A8,8 0 0 1 1038,408 Z" />
    <text x="1116" y="430" text-anchor="middle" font-family="'Microsoft YaHei', 'PingFang SC', sans-serif" font-size="11" font-weight="700" fill="#64748B" letter-spacing="1">STAGE OUTPUT</text>
    <text x="1116" y="460" text-anchor="middle" font-family="'Microsoft YaHei', 'PingFang SC', sans-serif" font-size="17" font-weight="800" fill="#10B981">成片</text>
  </g>

  <g id="flow-arrows" fill="#94A3B8">
    <polygon points="283,358 299,370 283,382" />
    <polygon points="521,358 537,370 521,382" />
    <polygon points="759,358 775,370 759,382" />
    <polygon points="997,358 1013,370 997,382" />
  </g>

  <g id="flow-caption">
    <text x="640" y="636" text-anchor="middle" font-family="'Microsoft YaHei', 'PingFang SC', sans-serif" font-size="14" font-weight="500" fill="#94A3B8">文本 → 图片 → 视频 → 配音 → 成片  ·  每阶段产出物可被下游复用</text>
  </g>

  <g id="footer">
    <text x="64" y="688" font-family="'Microsoft YaHei', 'PingFang SC', sans-serif" font-size="13" font-weight="500" fill="#94A3B8">DramaFlow</text>
    <text x="1216" y="688" text-anchor="end" font-family="'Microsoft YaHei', 'PingFang SC', sans-serif" font-size="13" font-weight="500" fill="#94A3B8">07 / 11</text>
  </g>
</svg>